<svg xmlns="http://www.w3.org/2000/svg" width="28.614" height="27.369" viewBox="0 0 28.614 27.369"><defs><style>.a{fill:#3b87f5;}.a,.b{stroke:#fff;}.b{fill:#fff;}.c{stroke:none;}.d{fill:none;}</style></defs><g transform="translate(1036.008 -78.527) rotate(180)"><path class="a" d="M1010.026-79.027,1007.962-95.1h8.843v16.068Z"/><path class="a" d="M1016.805-80.58a17.066,17.066,0,0,1,1.621.8,1.966,1.966,0,0,1,.721.621h12.612s3.8-1.668,0-3.992c2.448-.3,4.361-2.684,1.107-4.059,3.052-1.342,2.632-2.668.57-3.757,4.226-1.469.66-3.589.66-3.589h-9.951s3.421-10.263-2.818-10.8c.034,5.668,0,5.9,0,5.9l-4.522,7.01Z"/><g class="b" transform="translate(1013 -83.443)"><circle class="c" cx="1" cy="1" r="1"/><circle class="d" cx="1" cy="1" r="0.5"/></g></g></svg>