<svg xmlns="http://www.w3.org/2000/svg" width="30" height="30" viewBox="0 0 30 30"><defs><style>.a,.b{stroke:#000;}.b,.d{fill:none;}.c{stroke:none;}</style></defs><g transform="translate(-335 -30.664)"><path class="a" d="M409.252,1169.352h6.767s-1.748,2.909-3.439,2.909S409.252,1169.352,409.252,1169.352Z" transform="translate(-67.293 -1120.528)"/><path class="a" d="M409.252,1169.352h6.767s-1.748,2.909-3.439,2.909S409.252,1169.352,409.252,1169.352Z" transform="translate(-57.473 -1120.528)"/><path class="a" d="M342.288,34.951c1.345-1.018,1.315.521,2.726.521s1.447-1.539,2.918-.521,2.967,4.592,2.967,4.592H339.633S340.943,35.969,342.288,34.951Z" transform="translate(4.959 2.516)"/><g class="a" transform="translate(337.817 43.456)"><rect class="c" width="24.366" height="2.817"/><rect class="d" x="0.5" y="0.5" width="23.366" height="1.817"/></g><g class="b" transform="translate(335 30.664)"><circle class="c" cx="15" cy="15" r="15"/><circle class="d" cx="15" cy="15" r="14.5"/></g></g></svg>