<svg xmlns="http://www.w3.org/2000/svg" width="14.053" height="21.668" viewBox="0 0 14.053 21.668"><defs><style>.a{fill:none;stroke:#000;stroke-linecap:round;}.b{fill:#fff;}.c,.d{stroke:none;}</style></defs><g transform="translate(-333.344 -11.457)"><path class="a" d="M0,0V13.5" transform="translate(340.465 13.704)"/><path class="a" d="M-4307.939-1869.9l6.669-7.882,6.384,7.882" transform="translate(4641.783 1890.025)"/><g class="b" transform="translate(339.633 28.725)"><path class="c" d="M 0.8580666780471802 1.216156959533691 C 0.6606266498565674 1.216156959533691 0.499996691942215 1.055526971817017 0.499996691942215 0.8580769896507263 C 0.499996691942215 0.660627007484436 0.6606266498565674 0.4999969899654388 0.8580666780471802 0.4999969899654388 C 1.055506706237793 0.4999969899654388 1.216136693954468 0.660627007484436 1.216136693954468 0.8580769896507263 C 1.216136693954468 1.055526971817017 1.055506706237793 1.216156959533691 0.8580666780471802 1.216156959533691 Z"/><path class="d" d="M 0.8580666780471802 -2.980232238769531e-06 C 1.331966638565063 -2.980232238769531e-06 1.716136693954468 0.3841769695281982 1.716136693954468 0.8580769896507263 C 1.716136693954468 1.331977009773254 1.331966638565063 1.716156959533691 0.8580666780471802 1.716156959533691 C 0.3841667175292969 1.716156959533691 -3.337860107421875e-06 1.331977009773254 -3.337860107421875e-06 0.8580769896507263 C -3.337860107421875e-06 0.3841769695281982 0.3841667175292969 -2.980232238769531e-06 0.8580666780471802 -2.980232238769531e-06 Z"/></g><g class="b" transform="translate(339.633 31.409)"><path class="c" d="M 0.8580666780471802 1.216156959533691 C 0.6606266498565674 1.216156959533691 0.499996691942215 1.055526971817017 0.499996691942215 0.8580769896507263 C 0.499996691942215 0.660627007484436 0.6606266498565674 0.4999969899654388 0.8580666780471802 0.4999969899654388 C 1.055506706237793 0.4999969899654388 1.216136693954468 0.660627007484436 1.216136693954468 0.8580769896507263 C 1.216136693954468 1.055526971817017 1.055506706237793 1.216156959533691 0.8580666780471802 1.216156959533691 Z"/><path class="d" d="M 0.8580666780471802 -2.980232238769531e-06 C 1.331966638565063 -2.980232238769531e-06 1.716136693954468 0.3841769695281982 1.716136693954468 0.8580769896507263 C 1.716136693954468 1.331977009773254 1.331966638565063 1.716156959533691 0.8580666780471802 1.716156959533691 C 0.3841667175292969 1.716156959533691 -3.337860107421875e-06 1.331977009773254 -3.337860107421875e-06 0.8580769896507263 C -3.337860107421875e-06 0.3841769695281982 0.3841667175292969 -2.980232238769531e-06 0.8580666780471802 -2.980232238769531e-06 Z"/></g></g></svg>